<svg xmlns="http://www.w3.org/2000/svg" font-size="10px" font-family="sans-serif" fill="none" stroke="none" stroke-width="1.5" width="430" height="225"><g transform="translate(20,5)"><line stroke="rgb(0,0,0)" stroke-width="1" y1="200" y2="200" x1="0" x2="400"/><line stroke="rgb(238,238,238)" stroke-width="1" y1="175" y2="175" x1="0" x2="400"/><line stroke="rgb(238,238,238)" stroke-width="1" y1="150" y2="150" x1="0" x2="400"/><line stroke="rgb(238,238,238)" stroke-width="1" y1="125" y2="125" x1="0" x2="400"/><line stroke="rgb(238,238,238)" stroke-width="1" y1="100" y2="100" x1="0" x2="400"/><line stroke="rgb(238,238,238)" stroke-width="1" y1="75" y2="75" x1="0" x2="400"/><line stroke="rgb(238,238,238)" stroke-width="1" y1="50" y2="50" x1="0" x2="400"/><line stroke="rgb(238,238,238)" stroke-width="1" y1="25" y2="25" x1="0" x2="400"/><line stroke="rgb(238,238,238)" stroke-width="1" y1="0" y2="0" x1="0" x2="400"/></g><g transform="translate(20,5)"><path d="M0,86.4902364615081L4.040404040404041,86.19695503226271L8.080808080808081,86.81845370378001L12.121212121212123,66.81994207767042L16.161616161616163,59.92906881751696L20.2020202020202,59.85185900141593L24.242424242424246,62.90175404873341L28.28282828282828,45.4513046118565L32.323232323232325,51.971620996182196L36.36363636363637,48.36351561116092L40.4040404040404,52.43709051625888L44.44444444444445,32.074059903247246L48.48484848484849,34.86149390050102L52.52525252525253,39.9079620277991L56.56565656565656,30.583428244189093L60.60606060606061,29.29700770593675L64.64646464646465,31.463983111377246L68.68686868686869,44.12704126790442L72.72727272727273,25.449317331169652L76.76767676767678,43.52046731646266L80.8080808080808,46.47614345643498L84.84848484848484,50.06684877244362L88.8888888888889,55.291446010861705L92.92929292929294,42.455797257863935L96.96969696969698,41.676453158893565L101.01010101010101,61.120013708740174L105.05050505050507,50.87315051891932L109.09090909090911,72.40039714547892L113.13131313131312,61.708546951092984L117.17171717171718,79.29714113238231L121.21212121212122,70.23081890654376L125.25252525252526,82.07744344600752L129.2929292929293,83.83018102472397L133.33333333333334,105.23813917787506L137.37373737373738,107.76801042675514L141.41414141414143,106.04576581499774L145.45454545454547,106.21690816034491L149.4949494949495,107.43231517851744L153.53535353535355,105.99290384973726L157.5757575757576,122.3564661135332L161.6161616161616,129.79419935894828L165.65656565656568,119.1512303184179L169.6969696969697,121.33832507715479L173.73737373737373,141.28268582787592L177.7777777777778,128.18538552372678L181.8181818181818,144.61334283211713L185.85858585858588,125.35760484441485L189.8989898989899,129.57946041065333L193.93939393939397,139.2073671611738L197.97979797979798,146.895569814977L202.02020202020202,139.17462537531452L206.06060606060606,127.84209997120587L210.10101010101013,124.42131904629706L214.14141414141415,124.08333106712044L218.18181818181822,127.38129798294602L222.22222222222223,127.12222630039022L226.26262626262624,130.54940026558995L230.3030303030303,107.10475442851516L234.34343434343435,117.61745375247597L238.3838383838384,110.02713692800751L242.42424242424244,98.09704635829667L246.4646464646465,107.6225609567073L250.50505050505052,88.83238692180737L254.5454545454546,81.06607914249233L258.5858585858586,73.2691676588238L262.62626262626264,82.25386452829216L266.6666666666667,59.70922927558644L270.7070707070707,61.011349776475555L274.74747474747477,64.2325199416999L278.7878787878788,60.248950143789074L282.82828282828285,58.92823601981897L286.8686868686869,50.50838982573748L290.90909090909093,41.95140377314067L294.949494949495,55.58090527347329L298.989898989899,45.84914901473394L303.030303030303,29.093754196579084L307.0707070707071,44.20656557333774L311.11111111111114,26.176089870880247L315.1515151515152,48.80377398609227L319.1919191919192,47.16113818659579L323.2323232323232,48.99629863857791L327.27272727272725,27.749976641158383L331.31313131313135,48.50739193110337L335.3535353535354,40.25365527244193L339.3939393939394,40.31495067410549L343.4343434343434,37.404871057114775L347.47474747474746,56.12310047979469L351.51515151515156,47.357259368064575L355.5555555555556,45.309629766614535L359.5959595959596,67.79832245110015L363.6363636363636,69.2499238061587L367.67676767676767,72.62913980660142L371.71717171717177,77.03488298057519L375.75757575757575,81.3077949683046L379.7979797979798,84.55789929594921L383.83838383838383,93.2207353284998L387.87878787878793,96.46214841181143L391.919191919192,95.20325298324939L395.95959595959596,102.96628744299868L400,109.55256278527116L400,199L395.95959595959596,199L391.919191919192,199L387.87878787878793,199L383.83838383838383,199L379.7979797979798,199L375.75757575757575,199L371.71717171717177,199L367.67676767676767,199L363.6363636363636,199L359.5959595959596,199L355.5555555555556,199L351.51515151515156,199L347.47474747474746,199L343.4343434343434,199L339.3939393939394,199L335.3535353535354,199L331.31313131313135,199L327.27272727272725,199L323.2323232323232,199L319.1919191919192,199L315.1515151515152,199L311.11111111111114,199L307.0707070707071,199L303.030303030303,199L298.989898989899,199L294.949494949495,199L290.90909090909093,199L286.8686868686869,199L282.82828282828285,199L278.7878787878788,199L274.74747474747477,199L270.7070707070707,199L266.6666666666667,199L262.62626262626264,199L258.5858585858586,199L254.5454545454546,199L250.50505050505052,199L246.4646464646465,199L242.42424242424244,199L238.3838383838384,199L234.34343434343435,199L230.3030303030303,199L226.26262626262624,199L222.22222222222223,199L218.18181818181822,199L214.14141414141415,199L210.10101010101013,199L206.06060606060606,199L202.02020202020202,199L197.97979797979798,199L193.93939393939397,199L189.8989898989899,199L185.85858585858588,199L181.8181818181818,199L177.7777777777778,199L173.73737373737373,199L169.6969696969697,199L165.65656565656568,199L161.6161616161616,199L157.5757575757576,199L153.53535353535355,199L149.4949494949495,199L145.45454545454547,199L141.41414141414143,199L137.37373737373738,199L133.33333333333334,199L129.2929292929293,199L125.25252525252526,199L121.21212121212122,199L117.17171717171718,199L113.13131313131312,199L109.09090909090911,199L105.05050505050507,199L101.01010101010101,199L96.96969696969698,199L92.92929292929294,199L88.8888888888889,199L84.84848484848484,199L80.8080808080808,199L76.76767676767678,199L72.72727272727273,199L68.68686868686869,199L64.64646464646465,199L60.60606060606061,199L56.56565656565656,199L52.52525252525253,199L48.48484848484849,199L44.44444444444445,199L40.4040404040404,199L36.36363636363637,199L32.323232323232325,199L28.28282828282828,199L24.242424242424246,199L20.2020202020202,199L16.161616161616163,199L12.121212121212123,199L8.080808080808081,199L4.040404040404041,199L0,199Z" fill="rgb(121,173,210)"/></g><g transform="translate(20,5)"><path d="M0,86.4902364615081L4.040404040404041,86.19695503226271L8.080808080808081,86.81845370378001L12.121212121212123,66.81994207767042L16.161616161616163,59.92906881751696L20.2020202020202,59.85185900141593L24.242424242424246,62.90175404873341L28.28282828282828,45.4513046118565L32.323232323232325,51.971620996182196L36.36363636363637,48.36351561116092L40.4040404040404,52.43709051625888L44.44444444444445,32.074059903247246L48.48484848484849,34.86149390050102L52.52525252525253,39.9079620277991L56.56565656565656,30.583428244189093L60.60606060606061,29.29700770593675L64.64646464646465,31.463983111377246L68.68686868686869,44.12704126790442L72.72727272727273,25.449317331169652L76.76767676767678,43.52046731646266L80.8080808080808,46.47614345643498L84.84848484848484,50.06684877244362L88.8888888888889,55.291446010861705L92.92929292929294,42.455797257863935L96.96969696969698,41.676453158893565L101.01010101010101,61.120013708740174L105.05050505050507,50.87315051891932L109.09090909090911,72.40039714547892L113.13131313131312,61.708546951092984L117.17171717171718,79.29714113238231L121.21212121212122,70.23081890654376L125.25252525252526,82.07744344600752L129.2929292929293,83.83018102472397L133.33333333333334,105.23813917787506L137.37373737373738,107.76801042675514L141.41414141414143,106.04576581499774L145.45454545454547,106.21690816034491L149.4949494949495,107.43231517851744L153.53535353535355,105.99290384973726L157.5757575757576,122.3564661135332L161.6161616161616,129.79419935894828L165.65656565656568,119.1512303184179L169.6969696969697,121.33832507715479L173.73737373737373,141.28268582787592L177.7777777777778,128.18538552372678L181.8181818181818,144.61334283211713L185.85858585858588,125.35760484441485L189.8989898989899,129.57946041065333L193.93939393939397,139.2073671611738L197.97979797979798,146.895569814977L202.02020202020202,139.17462537531452L206.06060606060606,127.84209997120585L210.10101010101013,124.42131904629706L214.14141414141415,124.08333106712044L218.18181818181822,127.38129798294602L222.22222222222223,127.12222630039022L226.26262626262624,130.54940026558995L230.3030303030303,107.10475442851516L234.34343434343435,117.61745375247597L238.3838383838384,110.02713692800751L242.42424242424244,98.09704635829667L246.4646464646465,107.6225609567073L250.50505050505052,88.83238692180737L254.5454545454546,81.06607914249233L258.5858585858586,73.2691676588238L262.62626262626264,82.25386452829216L266.6666666666667,59.70922927558644L270.7070707070707,61.011349776475555L274.74747474747477,64.2325199416999L278.7878787878788,60.248950143789074L282.82828282828285,58.92823601981897L286.8686868686869,50.50838982573748L290.90909090909093,41.95140377314067L294.949494949495,55.58090527347329L298.989898989899,45.84914901473394L303.030303030303,29.093754196579084L307.0707070707071,44.20656557333774L311.11111111111114,26.176089870880247L315.1515151515152,48.80377398609227L319.1919191919192,47.16113818659579L323.2323232323232,48.99629863857791L327.27272727272725,27.749976641158383L331.31313131313135,48.50739193110337L335.3535353535354,40.25365527244193L339.3939393939394,40.31495067410549L343.4343434343434,37.404871057114775L347.47474747474746,56.12310047979469L351.51515151515156,47.357259368064575L355.5555555555556,45.309629766614535L359.5959595959596,67.79832245110015L363.6363636363636,69.2499238061587L367.67676767676767,72.62913980660142L371.71717171717177,77.03488298057519L375.75757575757575,81.3077949683046L379.7979797979798,84.55789929594921L383.83838383838383,93.2207353284998L387.87878787878793,96.46214841181143L391.919191919192,95.20325298324939L395.95959595959596,102.96628744299868L400,109.55256278527116" stroke="rgb(31,119,180)" stroke-width="3"/></g></svg>
